<svg width="62" height="62" viewBox="0 0 62 62" fill="none" xmlns="http://www.w3.org/2000/svg">
<rect width="61.2" height="61.2" rx="7.6" fill="#F1641E"/>
<path d="M23.2593 25.7704H19.1002C18.8944 25.8043 18.6837 25.7931 18.4827 25.7374C18.2817 25.6818 18.0952 25.5831 17.9361 25.4481C17.7771 25.3132 17.6493 25.1452 17.5617 24.956C17.4741 24.7667 17.4287 24.5606 17.4287 24.3521C17.4287 24.1435 17.4741 23.9374 17.5617 23.7481C17.6493 23.5589 17.7771 23.3909 17.9361 23.256C18.0952 23.121 18.2817 23.0223 18.4827 22.9667C18.6837 22.911 18.8944 22.8998 19.1002 22.9337H23.2593C23.6406 22.9337 24.0062 23.0852 24.2758 23.3548C24.5454 23.6243 24.6968 23.99 24.6968 24.3712C24.6968 24.7525 24.5454 25.1181 24.2758 25.3877C24.0062 25.6573 23.6406 25.8087 23.2593 25.8087V25.7704Z" fill="white"/>
<path d="M31.0986 25.77H28.4919C28.1107 25.77 27.7451 25.6186 27.4755 25.349C27.2059 25.0794 27.0544 24.7138 27.0544 24.3325C27.0544 23.9513 27.2059 23.5856 27.4755 23.3161C27.7451 23.0465 28.1107 22.895 28.4919 22.895H31.0986C31.4799 22.895 31.8455 23.0465 32.1151 23.3161C32.3847 23.5856 32.5361 23.9513 32.5361 24.3325C32.5361 24.7138 32.3847 25.0794 32.1151 25.349C31.8455 25.6186 31.4799 25.77 31.0986 25.77Z" fill="white"/>
<path d="M23.2593 32.0376H19.1001C18.7188 32.0376 18.3532 31.8861 18.0836 31.6166C17.814 31.347 17.6626 30.9813 17.6626 30.6001C17.6626 30.2188 17.814 29.8532 18.0836 29.5836C18.3532 29.314 18.7188 29.1626 19.1001 29.1626H23.2593C23.6405 29.1626 24.0061 29.314 24.2757 29.5836C24.5453 29.8532 24.6968 30.2188 24.6968 30.6001C24.6968 30.9813 24.5453 31.347 24.2757 31.6166C24.0061 31.8861 23.6405 32.0376 23.2593 32.0376Z" fill="white"/>
<path d="M31.0985 38.2671H26.7668C26.3856 38.2671 26.02 38.1156 25.7504 37.8461C25.4808 37.5765 25.3293 37.2108 25.3293 36.8296C25.3293 36.4483 25.4808 36.0827 25.7504 35.8131C26.02 35.5435 26.3856 35.3921 26.7668 35.3921H31.0218C31.4031 35.3921 31.7687 35.5435 32.0383 35.8131C32.3079 36.0827 32.4593 36.4483 32.4593 36.8296C32.4593 37.2108 32.3079 37.5765 32.0383 37.8461C31.7687 38.1156 31.4031 38.2671 31.0218 38.2671H31.0985Z" fill="white"/>
<path d="M31.0986 32.0376H28.4919C28.1107 32.0376 27.7451 31.8861 27.4755 31.6166C27.2059 31.347 27.0544 30.9813 27.0544 30.6001C27.0544 30.2188 27.2059 29.8532 27.4755 29.5836C27.7451 29.314 28.1107 29.1626 28.4919 29.1626H31.0986C31.4799 29.1626 31.8455 29.314 32.1151 29.5836C32.3847 29.8532 32.5361 30.2188 32.5361 30.6001C32.5361 30.9813 32.3847 31.347 32.1151 31.6166C31.8455 31.8861 31.4799 32.0376 31.0986 32.0376Z" fill="white"/>
<path opacity="0.3" d="M37.0977 43.9019V14.1935C37.1059 13.8802 37.0267 13.5708 36.8688 13.3C36.711 13.0292 36.4809 12.8078 36.2042 12.6605C35.9276 12.5132 35.6153 12.4459 35.3026 12.4662C34.9898 12.4864 34.6889 12.5935 34.4335 12.7752L32.1144 14.2702C31.8307 14.4597 31.4972 14.5609 31.156 14.5609C30.8149 14.5609 30.4814 14.4597 30.1977 14.2702L26.3644 11.7019C26.0816 11.5099 25.7478 11.4072 25.406 11.4072C25.0643 11.4072 24.7304 11.5099 24.4477 11.7019L20.7102 14.5769C20.4275 14.7689 20.0936 14.8715 19.7519 14.8715C19.4101 14.8715 19.0762 14.7689 18.7935 14.5769L16.321 12.9285C16.0653 12.7497 15.7654 12.6445 15.454 12.6243C15.1425 12.6041 14.8315 12.6697 14.5548 12.814C14.2781 12.9582 14.0463 13.1757 13.8846 13.4426C13.7229 13.7095 13.6375 14.0156 13.6377 14.3277V18.161V43.9019C13.6377 45.4574 14.2556 46.9491 15.3555 48.049C16.4554 49.1489 17.9472 49.7669 19.5027 49.7669H42.9627C41.4072 49.7669 39.9154 49.1489 38.8155 48.049C37.7156 46.9491 37.0977 45.4574 37.0977 43.9019Z" fill="white"/>
<path d="M48.8086 38.2668C48.8217 37.7472 48.7291 37.2304 48.5363 36.7478C48.3435 36.2651 48.0545 35.8267 47.687 35.4592C47.3195 35.0917 46.8811 34.8027 46.3984 34.6099C45.9158 34.4171 45.399 34.3245 44.8794 34.3377H37.0786V39.5318V43.7102C37.0544 45.0927 37.5086 46.4411 38.3643 47.5273C39.22 48.6135 40.4246 49.3708 41.7744 49.671C42.6256 49.8447 43.5048 49.8266 44.3481 49.6179C45.1914 49.4092 45.9776 49.0151 46.6494 48.4644C47.3213 47.9137 47.862 47.2201 48.2322 46.4342C48.6023 45.6483 48.7927 44.7897 48.7894 43.921V39.5127L48.8086 38.2668Z" fill="white"/>
</svg>
