<svg width="62" height="62" viewBox="0 0 62 62" fill="none" xmlns="http://www.w3.org/2000/svg">
<rect width="61.2" height="61.2" rx="7.6" fill="#F1641E"/>
<g clip-path="url(#clip0_106_3281)">
<path d="M45.3723 52.8159C35.5555 53.8633 25.6551 53.8633 15.8382 52.8159C13.9319 52.6146 12.1521 51.766 10.7957 50.4114C9.43928 49.0569 8.58812 47.2784 8.38413 45.3723C7.3368 35.5555 7.3368 25.6551 8.38413 15.8382C8.58544 13.9319 9.43411 12.1521 10.7886 10.7957C12.1432 9.43928 13.9217 8.58812 15.8278 8.38413C25.6446 7.3368 35.545 7.3368 45.3619 8.38413C47.2682 8.58544 49.0479 9.43411 50.4044 10.7886C51.7608 12.1432 52.612 13.9217 52.8159 15.8278C53.8633 25.6446 53.8633 35.545 52.8159 45.3619C52.6146 47.2682 51.766 49.0479 50.4114 50.4044C49.0569 51.7608 47.2784 52.612 45.3723 52.8159Z" fill="white"/>
<path d="M24.1705 20.1456C24.1705 20.9209 23.9406 21.6789 23.5098 22.3236C23.079 22.9684 22.4667 23.4709 21.7503 23.7676C21.034 24.0643 20.2457 24.1419 19.4852 23.9907C18.7247 23.8394 18.0262 23.466 17.4779 22.9177C16.9296 22.3694 16.5562 21.6709 16.4049 20.9104C16.2537 20.1499 16.3313 19.3616 16.628 18.6453C16.9247 17.9289 17.4272 17.3166 18.072 16.8858C18.7167 16.455 19.4747 16.2251 20.25 16.2251C21.2898 16.2251 22.287 16.6381 23.0222 17.3734C23.7575 18.1086 24.1705 19.1058 24.1705 20.1456Z" fill="#F1641E"/>
<path d="M23.2819 26.6798V44.0004C23.2825 44.1281 23.258 44.2548 23.2096 44.373C23.1611 44.4913 23.0898 44.5988 22.9997 44.6894C22.9096 44.78 22.8025 44.8519 22.6845 44.9009C22.5665 44.95 22.44 44.9753 22.3122 44.9752H18.18C18.0523 44.9756 17.9257 44.9507 17.8076 44.9019C17.6894 44.8532 17.5821 44.7816 17.4918 44.6912C17.4014 44.6009 17.3298 44.4936 17.2811 44.3755C17.2323 44.2573 17.2074 44.1308 17.2078 44.003V26.6798C17.2078 26.4219 17.3102 26.1746 17.4925 25.9923C17.6749 25.81 17.9222 25.7075 18.18 25.7075H22.3122C22.5696 25.7082 22.8162 25.811 22.998 25.9932C23.1798 26.1755 23.2819 26.4224 23.2819 26.6798Z" fill="#F1641E"/>
<path d="M44.8809 35.6967V44.0813C44.8813 44.1988 44.8584 44.3152 44.8136 44.4238C44.7688 44.5324 44.703 44.631 44.6199 44.7141C44.5368 44.7972 44.4381 44.863 44.3295 44.9078C44.2209 44.9526 44.1045 44.9755 43.9871 44.9752H39.5439C39.4264 44.9755 39.31 44.9526 39.2014 44.9078C39.0928 44.863 38.9941 44.7972 38.9111 44.7141C38.828 44.631 38.7622 44.5324 38.7174 44.4238C38.6726 44.3152 38.6497 44.1988 38.65 44.0813V35.9555C38.65 34.7428 39.0055 30.6446 35.4797 30.6446C32.7484 30.6446 32.1917 33.449 32.0819 34.7088V44.0813C32.082 44.3161 31.9896 44.5415 31.8248 44.7088C31.66 44.876 31.436 44.9717 31.2012 44.9752H26.9096C26.7923 44.9752 26.6762 44.952 26.5679 44.9071C26.4596 44.8621 26.3612 44.7962 26.2784 44.7132C26.1956 44.6301 26.13 44.5316 26.0854 44.4232C26.0408 44.3147 26.018 44.1985 26.0183 44.0813V26.6039C26.018 26.4866 26.0408 26.3705 26.0854 26.262C26.13 26.1536 26.1956 26.055 26.2784 25.972C26.3612 25.889 26.4596 25.8231 26.5679 25.7781C26.6762 25.7332 26.7923 25.71 26.9096 25.71H31.2012C31.4382 25.71 31.6656 25.8042 31.8332 25.9718C32.0008 26.1395 32.095 26.3668 32.095 26.6039V28.1146C33.1091 26.5934 34.612 25.4199 37.8189 25.4199C44.9227 25.4199 44.8809 32.0533 44.8809 35.6967Z" fill="#F1641E"/>
</g>
<defs>
<clipPath id="clip0_106_3281">
<rect width="46" height="46" fill="white" transform="translate(7.6001 7.6001)"/>
</clipPath>
</defs>
</svg>
