<svg width="61" height="61" viewBox="0 0 61 61" fill="none" xmlns="http://www.w3.org/2000/svg">
<rect width="60.2" height="60.2" rx="7.6" fill="#F1641E"/>
<path d="M28.6189 36.7563C32.0879 36.7563 34.9001 33.9441 34.9001 30.4751C34.9001 27.0061 32.0879 24.1938 28.6189 24.1938C25.1499 24.1938 22.3376 27.0061 22.3376 30.4751C22.3376 33.9441 25.1499 36.7563 28.6189 36.7563Z" fill="white"/>
<path d="M28.6188 48.85C32.9267 48.85 36.4188 46.6423 36.4188 43.9188C36.4188 41.1953 32.9267 38.9875 28.6188 38.9875C24.311 38.9875 20.8188 41.1953 20.8188 43.9188C20.8188 46.6423 24.311 48.85 28.6188 48.85Z" fill="white"/>
<path opacity="0.3" d="M38.5563 21.9251C41.4765 21.9251 43.8438 19.5578 43.8438 16.6376C43.8438 13.7174 41.4765 11.3501 38.5563 11.3501C35.6361 11.3501 33.2688 13.7174 33.2688 16.6376C33.2688 19.5578 35.6361 21.9251 38.5563 21.9251Z" fill="white"/>
<path opacity="0.3" d="M18.6251 21.9251C21.5454 21.9251 23.9126 19.5578 23.9126 16.6376C23.9126 13.7174 21.5454 11.3501 18.6251 11.3501C15.7049 11.3501 13.3376 13.7174 13.3376 16.6376C13.3376 19.5578 15.7049 21.9251 18.6251 21.9251Z" fill="white"/>
<g opacity="0.3">
<path d="M38.2563 26.0312C37.6563 26.0312 37.0751 26.0313 36.4938 26.125C37.3764 27.6577 37.7753 29.4213 37.6381 31.1845C37.5009 32.9478 36.8341 34.6285 35.7251 36.0062C36.5651 36.1726 37.4188 36.2604 38.2751 36.2688C43.0376 36.2688 46.8813 33.9625 46.8813 31.15C46.8813 28.3375 43.0188 26.0312 38.2563 26.0312Z" fill="white"/>
</g>
</svg>
