<svg width="61" height="61" viewBox="0 0 61 61" fill="none" xmlns="http://www.w3.org/2000/svg">
<rect width="60.8" height="60.8" rx="7.6" fill="#F1641E"/>
<path opacity="0.3" d="M30.4948 49.3999C27.99 49.405 25.5137 48.8669 23.2368 47.8229C22.8971 47.6581 22.6343 47.3683 22.5033 47.0142C22.3722 46.6601 22.3832 46.2691 22.5338 45.9229C22.6949 45.5798 22.9844 45.3138 23.3399 45.1823C23.6953 45.0507 24.0882 45.0642 24.4338 45.2199C26.2861 46.0628 28.2939 46.51 30.3288 46.5329C32.3637 46.5558 34.381 46.1539 36.2518 45.3529C36.5979 45.2219 36.9811 45.2288 37.3222 45.3722C37.6633 45.5155 37.9364 45.7843 38.0851 46.1231C38.2338 46.462 38.2468 46.845 38.1213 47.1931C37.9958 47.5412 37.7415 47.8278 37.4108 47.9939C35.2269 48.9336 32.8724 49.4122 30.4948 49.3999Z" fill="white"/>
<path opacity="0.3" d="M46.3218 31.825C45.967 31.8223 45.6257 31.6891 45.3629 31.4508C45.1 31.2125 44.9341 30.8858 44.8968 30.533C44.6857 28.554 44.071 26.6392 43.0906 24.9072C42.1102 23.1751 40.7849 21.6626 39.1968 20.463C38.9288 20.2214 38.761 19.8883 38.7264 19.5292C38.6918 19.17 38.7928 18.811 39.0097 18.5226C39.2265 18.2343 39.5435 18.0376 39.8981 17.9712C40.2527 17.9048 40.6194 17.9736 40.9258 18.164C42.8342 19.6009 44.4264 21.4154 45.6031 23.4943C46.7799 25.5733 47.5161 27.8722 47.7658 30.248C47.7869 30.4353 47.7705 30.625 47.7178 30.8059C47.6651 30.9869 47.5769 31.1556 47.4585 31.3023C47.3401 31.4489 47.1938 31.5707 47.028 31.6604C46.8623 31.7501 46.6803 31.8061 46.4928 31.825H46.3218Z" fill="white"/>
<path opacity="0.3" d="M14.6679 31.8249H14.5159C14.1437 31.773 13.8071 31.5761 13.5794 31.2772C13.3516 30.9783 13.2512 30.6015 13.2999 30.2289C13.5512 27.8112 14.3066 25.4731 15.5175 23.3655C16.7284 21.2579 18.3678 19.4277 20.3299 17.9929C20.4795 17.855 20.6567 17.7504 20.8496 17.6858C21.0426 17.6212 21.247 17.5981 21.4496 17.618C21.6521 17.638 21.8481 17.7005 22.0247 17.8015C22.2014 17.9025 22.3547 18.0397 22.4746 18.2041C22.5946 18.3685 22.6784 18.5563 22.7206 18.7554C22.7629 18.9545 22.7625 19.1602 22.7197 19.3591C22.6769 19.5581 22.5924 19.7457 22.472 19.9097C22.3516 20.0737 22.1978 20.2104 22.0209 20.3109C20.3712 21.5038 18.9909 23.0303 17.9697 24.7914C16.9484 26.5525 16.3089 28.5086 16.0929 30.5329C16.0555 30.8857 15.8896 31.2124 15.6268 31.4507C15.364 31.689 15.0226 31.8222 14.6679 31.8249Z" fill="white"/>
<path d="M30.3618 22.4579C33.4153 22.4579 35.8908 19.9825 35.8908 16.9289C35.8908 13.8753 33.4153 11.3999 30.3618 11.3999C27.3082 11.3999 24.8328 13.8753 24.8328 16.9289C24.8328 19.9825 27.3082 22.4579 30.3618 22.4579Z" fill="white"/>
<path d="M17.0998 45.163C20.1534 45.163 22.6288 42.6876 22.6288 39.634C22.6288 36.5804 20.1534 34.105 17.0998 34.105C14.0462 34.105 11.5708 36.5804 11.5708 39.634C11.5708 42.6876 14.0462 45.163 17.0998 45.163Z" fill="white"/>
<path d="M43.6999 45.163C46.7535 45.163 49.2289 42.6876 49.2289 39.634C49.2289 36.5804 46.7535 34.105 43.6999 34.105C40.6463 34.105 38.1709 36.5804 38.1709 39.634C38.1709 42.6876 40.6463 45.163 43.6999 45.163Z" fill="white"/>
</svg>
