<svg width="62" height="62" viewBox="0 0 62 62" fill="none" xmlns="http://www.w3.org/2000/svg">
<rect width="61.2" height="61.2" rx="7.6" fill="#F1641E"/>
<path opacity="0.3" d="M28.6834 20.0583C28.6795 21.7571 28.173 23.4168 27.2276 24.8282C26.2822 26.2396 24.9402 27.3397 23.3707 27.9897C21.8012 28.6398 20.0744 28.8108 18.4079 28.4813C16.7414 28.1517 15.2097 27.3362 14.0058 26.1377C12.8019 24.9391 11.9797 23.411 11.6427 21.746C11.3057 20.0809 11.4691 18.3534 12.1122 16.781C12.7553 15.2087 13.8494 13.8618 15.2566 12.9102C16.6639 11.9585 18.3213 11.4447 20.02 11.4333C21.1566 11.4257 22.2834 11.6433 23.3354 12.0736C24.3874 12.5039 25.3438 13.1383 26.1493 13.9402C26.9548 14.7421 27.5934 15.6957 28.0283 16.7458C28.4633 17.7958 28.6859 18.9217 28.6834 20.0583ZM41.0267 11.4333C39.3192 11.4257 37.6479 11.9251 36.2245 12.8682C34.8011 13.8113 33.6896 15.1557 33.0309 16.731C32.3723 18.3063 32.196 20.0417 32.5244 21.7173C32.8529 23.3929 33.6713 24.9333 34.876 26.1434C36.0807 27.3535 37.6174 28.1787 39.2915 28.5147C40.9657 28.8506 42.7018 28.682 44.2801 28.0304C45.8583 27.3787 47.2076 26.2732 48.1571 24.8541C49.1065 23.4349 49.6133 21.7658 49.6134 20.0583C49.6184 18.9275 49.4 17.8068 48.9708 16.7605C48.5415 15.7143 47.9098 14.7632 47.112 13.9618C46.3141 13.1604 45.3658 12.5245 44.3215 12.0906C43.2773 11.6567 42.1575 11.4333 41.0267 11.4333ZM19.9434 32.5166C18.2426 32.5393 16.5865 33.0644 15.1833 34.0258C13.7801 34.9872 12.6926 36.342 12.0574 37.9199C11.4221 39.4978 11.2677 41.2282 11.6133 42.8937C11.959 44.5591 12.7894 46.0852 14.0001 47.2799C15.2108 48.4747 16.7477 49.2848 18.4175 49.6084C20.0874 49.9319 21.8157 49.7545 23.385 49.0985C24.9543 48.4425 26.2946 47.337 27.2374 45.9213C28.1801 44.5055 28.6832 42.8426 28.6834 41.1416C28.6859 40.005 28.4633 38.8792 28.0283 37.8291C27.5934 36.779 26.9548 35.8255 26.1493 35.0236C25.3438 34.2216 24.3874 33.5872 23.3354 33.1569C22.2834 32.7267 21.1566 32.509 20.02 32.5166H19.9434ZM41.0267 32.5166C39.3192 32.509 37.6479 33.0084 36.2245 33.9515C34.8011 34.8946 33.6896 36.239 33.0309 37.8143C32.3723 39.3897 32.196 41.1251 32.5244 42.8007C32.8529 44.4763 33.6713 46.0167 34.876 47.2267C36.0807 48.4368 37.6174 49.2621 39.2915 49.598C40.9657 49.9339 42.7018 49.7654 44.2801 49.1137C45.8583 48.462 47.2076 47.3566 48.1571 45.9374C49.1065 44.5182 49.6133 42.8491 49.6134 41.1416C49.6184 40.0108 49.4 38.8901 48.9708 37.8439C48.5415 36.7977 47.9098 35.8466 47.112 35.0451C46.3141 34.2437 45.3658 33.6078 44.3215 33.1739C43.2773 32.74 42.1575 32.5166 41.0267 32.5166Z" fill="white"/>
<path d="M41.0267 38.2667H40.8734L39.5509 36.9442C38.4001 35.814 37.6469 34.3412 37.4042 32.7467C37.2125 31.3091 37.2125 29.8525 37.4042 28.415C37.6469 26.8205 38.4001 25.3477 39.5509 24.2175L40.8734 22.9333H41.0267C41.5996 22.9563 42.1664 22.8074 42.6541 22.5057C43.1417 22.2041 43.5281 21.7635 43.7634 21.2406C43.9987 20.7177 44.0723 20.1363 43.9747 19.5713C43.8771 19.0062 43.6128 18.4833 43.2157 18.0696C42.8186 17.656 42.3068 17.3705 41.7462 17.2499C41.1856 17.1293 40.6018 17.1792 40.0697 17.393C39.5376 17.6068 39.0816 17.9748 38.7604 18.4498C38.4391 18.9247 38.2671 19.4849 38.2667 20.0583V20.2117L36.9634 21.5342C35.8166 22.7079 34.3138 23.4694 32.6892 23.7C31.2581 23.8918 29.8078 23.8918 28.3767 23.7C26.7848 23.4535 25.3174 22.6928 24.1984 21.5342L22.9334 20.2117C22.9334 20.2117 22.9334 20.2117 22.9334 20.0583C22.9333 19.4914 22.7656 18.9371 22.4514 18.4651C22.1371 17.9932 21.6903 17.6247 21.1672 17.406C20.6441 17.1874 20.068 17.1282 19.5114 17.2361C18.9548 17.344 18.4425 17.614 18.0389 18.0122C17.6354 18.4105 17.3586 18.9192 17.2433 19.4743C17.1281 20.0295 17.1796 20.6063 17.3914 21.1323C17.6031 21.6582 17.9656 22.1098 18.4333 22.4303C18.9011 22.7508 19.4531 22.9258 20.02 22.9333H20.1734L21.4959 24.2558C22.6525 25.3841 23.4124 26.8569 23.6617 28.4533C23.8534 29.8909 23.8534 31.3475 23.6617 32.785C23.4124 34.3815 22.6525 35.8542 21.4959 36.9825L20.1734 38.2667H20.02C19.4531 38.2742 18.9011 38.4493 18.4333 38.7697C17.9656 39.0902 17.6031 39.5418 17.3914 40.0678C17.1796 40.5937 17.1281 41.1705 17.2433 41.7257C17.3586 42.2808 17.6354 42.7895 18.0389 43.1878C18.4425 43.586 18.9548 43.8561 19.5114 43.9639C20.068 44.0718 20.6441 44.0126 21.1672 43.794C21.6903 43.5753 22.1371 43.2068 22.4514 42.7349C22.7656 42.263 22.9333 41.7086 22.9334 41.1417C22.9334 41.1417 22.9334 41.0458 22.9334 40.9883L24.2558 39.6658C25.3749 38.5072 26.8423 37.7465 28.4342 37.5C29.8589 37.3083 31.3028 37.3083 32.7275 37.5C34.3253 37.7453 35.7992 38.5058 36.925 39.6658L38.2283 40.9883V41.1417C38.2286 41.7135 38.3993 42.2723 38.7187 42.7466C39.0381 43.2209 39.4918 43.5892 40.0216 43.8044C40.5514 44.0195 41.1333 44.0718 41.693 43.9545C42.2527 43.8372 42.7647 43.5557 43.1636 43.1459C43.5624 42.7361 43.83 42.2167 43.9321 41.6541C44.0343 41.0914 43.9663 40.5111 43.7369 39.9873C43.5075 39.4635 43.1271 39.02 42.6443 38.7135C42.1615 38.407 41.5983 38.2514 41.0267 38.2667Z" fill="white"/>
</svg>
