<svg width="62" height="62" viewBox="0 0 62 62" fill="none" xmlns="http://www.w3.org/2000/svg">
<rect width="61.2" height="61.2" rx="7.6" fill="#F1641E"/>
<path d="M30.6 13.1778C29.5183 13.1748 28.4551 13.4589 27.519 14.001C26.5829 14.5431 25.8074 15.3239 25.2717 16.2636L12.2575 38.7844C11.6191 39.9071 11.3514 41.2026 11.4925 42.4863C11.6336 43.77 12.1764 44.9764 13.0433 45.9336L30.6 33.6861V13.1778Z" fill="white"/>
<path opacity="0.3" d="M48.1184 46.0294C49.0157 45.0705 49.5803 43.8481 49.7287 42.5432C49.8772 41.2384 49.6015 39.9204 48.9426 38.7844L35.9284 16.2636C35.3927 15.3239 34.6172 14.5431 33.6811 14.001C32.745 13.4589 31.6818 13.1748 30.6001 13.1778V33.6861L48.1184 46.0294Z" fill="white"/>
<path opacity="0.3" d="M13.0435 45.9335C13.612 46.5765 14.3114 47.0904 15.0949 47.4408C15.8784 47.7912 16.7277 47.97 17.586 47.9652H43.5951C44.4415 47.9818 45.2818 47.8197 46.0613 47.4894C46.8407 47.1592 47.5417 46.6682 48.1185 46.0485L30.6001 33.686L13.0435 45.9335Z" fill="white"/>
<path opacity="0.3" d="M13.0435 45.9335C13.612 46.5765 14.3114 47.0904 15.0949 47.4408C15.8784 47.7912 16.7277 47.97 17.586 47.9652H43.5951C44.4415 47.9818 45.2818 47.8197 46.0613 47.4894C46.8407 47.1592 47.5417 46.6682 48.1185 46.0485L30.6001 33.686L13.0435 45.9335Z" fill="white"/>
</svg>
