<svg width="45" height="45" viewBox="0 0 45 45" fill="none" xmlns="http://www.w3.org/2000/svg">
<g clip-path="url(#clip0_72_4279)">
<path d="M20.874 1.55661C20.872 1.53722 20.8699 1.51732 20.8679 1.49691C20.7148 0.549479 19.8225 -0.0964301 18.8735 0.0566289C13.7017 0.88927 8.96451 3.54638 5.53139 7.53968C2.06308 11.5758 0.151367 16.7339 0.151367 22.0634C0.151367 24.7802 0.635037 27.4358 1.59013 29.9567C1.85339 30.6516 2.5146 31.0801 3.21714 31.0801C3.42224 31.0801 3.6304 31.0434 3.83244 30.9669C3.85285 30.9587 3.87325 30.95 3.89366 30.9409C2.60184 28.2516 1.87634 25.2409 1.87634 22.0634C1.87634 11.2514 10.264 2.36017 20.874 1.55661Z" fill="#EB4736"/>
<path d="M22.443 42.6298C15.4023 42.6298 9.17739 39.0727 5.46877 33.6621C5.45041 33.6754 5.43204 33.6886 5.41367 33.7019C4.6698 34.3096 4.55807 35.4055 5.16571 36.1508C9.42228 41.364 15.7191 44.3548 22.4445 44.3548C29.1638 44.3548 35.4591 41.3671 39.7157 36.157C40.3234 35.4131 40.2132 34.3172 39.4693 33.7096C39.4509 33.6953 39.4326 33.6815 39.4142 33.6682C35.704 39.0758 29.4822 42.6298 22.443 42.6298Z" fill="#EB4736"/>
<path d="M39.3558 7.53968C35.9227 3.54638 31.1855 0.88927 26.0137 0.0566289C25.0647 -0.0964301 24.1724 0.549479 24.0193 1.49691C24.0173 1.51732 24.0152 1.53722 24.0132 1.55661C34.6232 2.3617 43.0109 11.2514 43.0109 22.0634C43.0109 25.2471 42.2838 28.2623 40.9874 30.9546C41.0068 30.9638 41.0267 30.9725 41.0471 30.9807C41.2507 31.0587 41.4604 31.0939 41.6655 31.0939C42.3665 31.0939 43.0277 30.6669 43.291 29.972C44.2491 27.4465 44.7358 24.7864 44.7358 22.0634C44.7358 16.7339 42.8241 11.5758 39.3558 7.53968Z" fill="#EB4736"/>
<path d="M4.84428 28.7246C4.03919 26.5986 3.63205 24.3578 3.63205 22.0635C3.63205 12.7759 10.2748 4.96526 19.4277 3.4913C20.3553 3.34284 20.992 2.48265 20.8741 1.55664C10.2641 2.3602 1.87646 11.2514 1.87646 22.0635C1.87646 25.241 2.60196 28.2517 3.89378 30.9409C4.75091 30.5781 5.17641 29.6016 4.84428 28.7246Z" fill="#EB4736"/>
<path d="M37.0203 33.9561C33.428 38.3535 28.1154 40.8759 22.4445 40.8759C16.7691 40.8759 11.4549 38.352 7.86106 33.95C7.26872 33.223 6.21109 33.102 5.46875 33.6622C9.17737 39.0729 15.4023 42.63 22.443 42.63C29.4822 42.63 35.704 39.0759 39.4142 33.6684C38.6718 33.1097 37.6142 33.2291 37.0203 33.9561Z" fill="#EB4736"/>
<path d="M24.0135 1.55664C23.8957 2.48265 24.5324 3.34284 25.4615 3.4913C34.6129 4.96526 41.2556 12.7759 41.2556 22.0635C41.2556 24.3624 40.847 26.6078 40.0388 28.7368C39.7052 29.6154 40.1306 30.5919 40.9878 30.9547C42.2842 28.2624 43.0112 25.2456 43.0112 22.0635C43.0112 11.2514 34.6236 2.36173 24.0135 1.55664Z" fill="#EB4736"/>
<path d="M22.443 8.12757C26.9399 8.12757 30.9424 10.2689 33.4923 13.5826C34.1536 12.9061 34.1536 11.8224 33.4847 11.1459C28.4475 6.05056 20.6323 5.06027 14.4809 8.73521C13.2258 9.4852 12.087 10.4036 11.0968 11.4643C10.4493 12.1576 10.4799 13.2413 11.1595 13.8994C13.6942 10.4051 17.8069 8.12757 22.443 8.12757Z" fill="#EB4736"/>
<path d="M35.1512 16.3512C35.938 18.0961 36.3803 20.0292 36.3803 22.0633C36.3803 29.1301 31.0921 34.9815 24.2642 35.8769C24.4815 36.6392 25.1764 37.1412 25.9356 37.1412C26.0825 37.1422 26.23 37.1233 26.3779 37.0846C27.7891 36.7157 29.1452 36.1463 30.4064 35.3917C36.5594 31.7168 39.3894 24.3654 37.2895 17.5144C37.0124 16.6068 36.0589 16.094 35.1512 16.3512Z" fill="#EB4736"/>
<path d="M8.50637 22.0636C8.50637 20.1718 8.88749 18.3688 9.5732 16.7218C8.66096 16.4968 7.73037 17.0371 7.47935 17.9494C6.34518 22.0743 6.92681 26.3645 9.11555 30.0272C11.2997 33.6854 14.7971 36.2277 18.9603 37.1873C19.0919 37.218 19.2225 37.2328 19.3521 37.2317C20.1281 37.2317 20.8307 36.7083 21.0327 35.9292C14.0073 35.2205 8.50637 29.2727 8.50637 22.0636Z" fill="#EB4736"/>
<path d="M12.3683 14.3906C12.8336 14.3906 13.2974 14.2054 13.6403 13.8381C14.4071 13.0161 15.2902 12.3044 16.2652 11.7228C21.0376 8.86978 27.1018 9.63966 31.0109 13.5932C31.6859 14.2758 32.7879 14.2819 33.4706 13.607C33.4777 13.5988 33.4849 13.5906 33.492 13.5825C30.942 10.2687 26.9396 8.12744 22.4427 8.12744C17.8065 8.12744 13.6938 10.405 11.1592 13.8993C11.1663 13.9075 11.174 13.9151 11.1821 13.9223C11.5173 14.236 11.9428 14.3906 12.3683 14.3906Z" fill="#EB4736"/>
<path d="M36.3807 22.0635C36.3807 20.0293 35.9384 18.0962 35.1517 16.3513C35.1404 16.3544 35.1287 16.3574 35.1165 16.3605C34.1981 16.6421 33.6823 17.6141 33.9639 18.5339C35.5925 23.8481 33.3961 29.5527 28.6222 32.4041C27.6426 32.9904 26.5911 33.4327 25.4967 33.7189C24.5676 33.9623 24.0105 34.9128 24.2539 35.8419C24.258 35.8541 24.2615 35.8658 24.2646 35.8771C31.0925 34.9817 36.3807 29.1302 36.3807 22.0635Z" fill="#EB4736"/>
<path d="M19.7414 33.7967C16.5103 33.0513 13.7981 31.0784 12.1022 28.2422C10.4048 25.4014 9.95478 22.0724 10.8349 18.8704C11.0889 17.9444 10.5441 16.9862 9.61805 16.7322C9.60274 16.7281 9.58794 16.7245 9.57366 16.7214C8.88795 18.3683 8.50684 20.1714 8.50684 22.0632C8.50684 29.2723 14.0078 35.2201 21.0332 35.9288C21.0383 35.9135 21.0429 35.8982 21.047 35.8829C21.2628 34.9462 20.6781 34.0125 19.7414 33.7967Z" fill="#EB4736"/>
<path opacity="0.3" d="M22.5468 29.9852C27.0209 29.9852 30.6478 26.3583 30.6478 21.8842C30.6478 17.4102 27.0209 13.7832 22.5468 13.7832C18.0727 13.7832 14.4458 17.4102 14.4458 21.8842C14.4458 26.3583 18.0727 29.9852 22.5468 29.9852Z" fill="#B22624"/>
<path d="M25.5825 23.2145L30.5625 24.7835C30.8305 24.8581 31.0677 25.0164 31.2394 25.2353C31.411 25.4542 31.5083 25.7222 31.5169 26.0003C31.5254 26.2784 31.4449 26.5519 31.287 26.7809C31.1291 27.01 30.9021 27.1826 30.6392 27.2735L29.2237 27.7852C29.0443 27.8503 28.8816 27.9544 28.7474 28.0901C28.6132 28.2258 28.5108 28.3896 28.4477 28.5697L27.9104 30.0364C27.8229 30.2973 27.6556 30.5241 27.4322 30.6847C27.2088 30.8454 26.9406 30.9319 26.6654 30.9319C26.3903 30.9319 26.122 30.8454 25.8986 30.6847C25.6753 30.5241 25.508 30.2973 25.4204 30.0364L23.8685 24.92C23.7946 24.682 23.7873 24.4284 23.8474 24.1866C23.9074 23.9448 24.0325 23.7241 24.2092 23.5483C24.3858 23.3726 24.6071 23.2486 24.8492 23.1897C25.0913 23.1309 25.3449 23.1394 25.5825 23.2145Z" fill="#B22624"/>
</g>
<defs>
<clipPath id="clip0_72_4279">
<rect width="44.8463" height="44.3871" fill="white"/>
</clipPath>
</defs>
</svg>
